<svg xmlns="http://www.w3.org/2000/svg" width="191.486" height="200" viewBox="0 0 191.486 200"><defs><style>.a{fill:#fad706;}</style></defs><g transform="translate(-4.564 -1.921)"><path class="a" d="M116.529,20.743H85.337a3.119,3.119,0,0,0,0,6.238h31.192a3.119,3.119,0,1,0,0-6.238Z" transform="translate(47.436 11.498)"/><path class="a" d="M94.151,20.743H50.482a3.119,3.119,0,1,0,0,6.238H94.151a3.119,3.119,0,0,0,0-6.238Z" transform="translate(26.144 11.498)"/><path class="a" d="M119.648,40.431a3.118,3.118,0,0,0-3.119-3.119H85.337a3.119,3.119,0,0,0,0,6.238h31.192a3.118,3.118,0,0,0,3.119-3.12Z" transform="translate(47.436 21.619)"/><path class="a" d="M97.271,40.431a3.118,3.118,0,0,0-3.119-3.119H50.482a3.119,3.119,0,0,0,0,6.238H94.151a3.118,3.118,0,0,0,3.119-3.119Z" transform="translate(26.144 21.619)"/><path class="a" d="M87.913,53.882H50.482a3.119,3.119,0,1,0,0,6.238h37.43a3.119,3.119,0,1,0,0-6.238Z" transform="translate(26.144 31.74)"/><path class="a" d="M81.464,53.882a3.119,3.119,0,0,0,0,6.238H96.706a3.119,3.119,0,1,0,0-6.238Z" transform="translate(45.07 31.74)"/><path d="M105.943,114.389a10.788,10.788,0,0,1-10.716-4.542l-.741-1.087-9.874,20.621,9.519-.376,5.676,7.652,11.031-23.032-.127-.054Z" transform="translate(48.898 65.263)"/><path d="M117.141,109.943l-3.568,3.269a10.785,10.785,0,0,1-7.282,2.82c-.1,0-.2,0-.294,0l9.747,20.353,5.673-7.651,9.519.376-9.526-19.894Z" transform="translate(61.961 65.539)"/><path class="a" d="M148.053,107.75l-1.915-5.918,1.588-6.014a6.06,6.06,0,0,0-2.018-6.234L140.9,85.641l-1.915-5.918a6.06,6.06,0,0,0-5.068-4.154l-6.179-.716-4.811-3.943a6.06,6.06,0,0,0-6.509-.754l-5.585,2.738-6.179-.716a6.06,6.06,0,0,0-5.883,2.884l-3.217,5.323-5.585,2.738a6.06,6.06,0,0,0-3.39,5.607l.17,6.218-3.218,5.323a6.06,6.06,0,0,0,.18,6.55l3.5,5.139.17,6.218a6.06,6.06,0,0,0,3.692,5.413l5.727,2.428,3.5,5.139a6.06,6.06,0,0,0,6.033,2.558l6.13-1.053,5.727,2.428a6.06,6.06,0,0,0,6.458-1.11l4.587-4.2,6.13-1.053A6.06,6.06,0,0,0,140.2,124.3l1.588-6.014,4.587-4.2a6.06,6.06,0,0,0,1.672-6.335Z" transform="translate(47.702 41.304)"/><path d="M56.11,172.963V27.7a25.669,25.669,0,0,0-4.551-14.611H170.278A14.624,14.624,0,0,1,184.883,27.7v81.459a14.343,14.343,0,0,1,9.645,9.336l1.17,3.615.351.287V27.7a25.8,25.8,0,0,0-25.77-25.776H30.334A25.8,25.8,0,0,0,4.564,27.7V47.433a5.589,5.589,0,0,0,5.583,5.583h34.8v125.53a5.589,5.589,0,0,0,5.583,5.583h78.88l5.349-11.165ZM44.945,41.85H15.729V27.7a14.608,14.608,0,0,1,29.216,0Z" transform="translate(0 0)"/><path class="a" d="M73.393,101.407a4.76,4.76,0,0,0,4.228,1.947l.463,0c1.071-.005,2.143-.046,3.175-.093l.067,0c.695-.032,1.389-.065,2.082-.081l.75-.016c1.586-.036,3.172-.072,4.759-.1a2.8,2.8,0,1,0-.067-5.59h-.021c-1.473.023-2.945.056-4.418.089l-1.129.025c-.7.016-1.4.048-2.1.079l-.12.006c-1.125.052-2.038.08-2.953.09a17.517,17.517,0,0,0-.538-5.833L77.5,91.7a6.96,6.96,0,0,0-8.06-4.809,8.057,8.057,0,0,0-.872.229,11.7,11.7,0,1,0-22.385,4.766L49.2,98.9a2.8,2.8,0,0,0,5.136-2.21l-3.015-7.008a6.1,6.1,0,0,1,2.032-7.54,6.214,6.214,0,0,1,9.558,6.19l-1.373,8.365-.043.186c-.038.164-.075.327-.118.488a2.795,2.795,0,1,0,5.384,1.5,2.679,2.679,0,0,0,.187-.626l.073-.447.053-.221c.026-.106.052-.211.076-.319a13.757,13.757,0,0,1,.877-2.922,3.851,3.851,0,0,1,2.527-1.964c1.126-.23,1.581.917,1.656,1.14l.026.078a13.032,13.032,0,0,1,.286,4.083A6.142,6.142,0,0,0,73.393,101.407Z" transform="translate(24.805 44.904)"/></g></svg>