<svg xmlns="http://www.w3.org/2000/svg" width="45" height="46" viewBox="0 0 45 46"><defs><style>.a{fill:#fff;stroke:#fad706;}.b{stroke:none;}.c{fill:none;}</style></defs><g transform="translate(0.025 0.422)"><g class="a" transform="translate(-0.025 -0.422)"><ellipse class="b" cx="22.5" cy="23" rx="22.5" ry="23"/><ellipse class="c" cx="22.5" cy="23" rx="22" ry="22.5"/></g><path d="M15.794,13.918a4.6,4.6,0,0,1,2.465-4.18,5.3,5.3,0,0,0-4.175-2.2c-1.75-.138-3.663,1.02-4.362,1.02-.739,0-2.435-.971-3.766-.971C3.2,7.633.281,9.782.281,14.154a12.286,12.286,0,0,0,.71,4C1.622,19.966,3.9,24.4,6.275,24.329c1.242-.03,2.12-.882,3.736-.882,1.568,0,2.381.882,3.766.882,2.4-.035,4.456-4.067,5.058-5.881a4.886,4.886,0,0,1-3.041-4.53ZM13,5.824A4.643,4.643,0,0,0,14.187,2.25,5.227,5.227,0,0,0,10.84,3.97,4.715,4.715,0,0,0,9.578,7.515,4.14,4.14,0,0,0,13,5.824Z" transform="translate(13.02 7.407)"/></g></svg>