<svg xmlns="http://www.w3.org/2000/svg" width="16.655" height="24.982" viewBox="0 0 16.655 24.982"><defs><style>.a{fill:#25aae2;}</style></defs><path class="a" d="M17.328,1A2.081,2.081,0,0,1,19.41,3.082V3.6h4.684a1.534,1.534,0,0,1,1.561,1.561V24.421a1.534,1.534,0,0,1-1.561,1.561H10.561A1.534,1.534,0,0,1,9,24.421V5.164A1.534,1.534,0,0,1,10.561,3.6h4.684v-.52A2.081,2.081,0,0,1,17.328,1Zm0,1.041a.989.989,0,0,0-1.041,1.041V5.164h2.082V3.082A.989.989,0,0,0,17.328,2.041Zm0,.52a.52.52,0,1,1-.52.52A.52.52,0,0,1,17.328,2.561Zm1.561,8.848a.52.52,0,0,0-.368.888l2.755,2.755H11.6a.52.52,0,1,0,0,1.041h9.674l-2.755,2.755a.52.52,0,0,0,.736.736L22.9,15.941a.52.52,0,0,0,0-.736l-3.643-3.643A.519.519,0,0,0,18.889,11.409Z" transform="translate(-9 -1)"/></svg>