<svg xmlns="http://www.w3.org/2000/svg" width="24" height="25.846" viewBox="0 0 24 25.846"><g transform="translate(-3.375 -2.25)"><path d="M25.529,8.25H20.665a3.39,3.39,0,0,0,1.171-2.538A3.558,3.558,0,0,0,18.2,2.25a3.219,3.219,0,0,0-2.821,1.581A3.219,3.219,0,0,0,12.554,2.25a3.558,3.558,0,0,0-3.64,3.462A3.37,3.37,0,0,0,10.085,8.25H5.221A1.844,1.844,0,0,0,3.375,10.1V11.25a.231.231,0,0,0,.231.231H27.144a.231.231,0,0,0,.231-.231V10.1A1.844,1.844,0,0,0,25.529,8.25ZM18.2,3.865A1.9,1.9,0,0,1,20.14,5.712,1.9,1.9,0,0,1,18.2,7.558H16.252C16.252,4.788,17.123,3.865,18.2,3.865Zm-5.642,0c1.073,0,1.944.923,1.944,3.692H12.554A1.9,1.9,0,0,1,10.61,5.712,1.9,1.9,0,0,1,12.554,3.865Z"/><path d="M4.5,15.79V28.6a1.852,1.852,0,0,0,1.846,1.846h8.423V15.328H4.962A.463.463,0,0,0,4.5,15.79Z" transform="translate(-0.202 -2.347)"/><path d="M28.792,15.328H18.984V30.444h8.423A1.852,1.852,0,0,0,29.254,28.6V15.79A.463.463,0,0,0,28.792,15.328Z" transform="translate(-2.802 -2.347)"/></g></svg>