<svg xmlns="http://www.w3.org/2000/svg" xmlns:xlink="http://www.w3.org/1999/xlink" width="242.501" height="94.997" viewBox="0 0 242.501 94.997"><defs><style>.a{fill:#fad706;}.b{fill:#d7d7d7;}.c{filter:url(#c);}.d{filter:url(#a);}</style><filter id="a" x="0" y="0" width="242.501" height="94.997" filterUnits="userSpaceOnUse"><feOffset dy="3" input="SourceAlpha"/><feGaussianBlur stdDeviation="3" result="b"/><feFlood flood-opacity="0.161"/><feComposite operator="in" in2="b"/><feComposite in="SourceGraphic"/></filter><filter id="c" x="18.402" y="23.002" width="55.195" height="48.995" filterUnits="userSpaceOnUse"><feOffset dy="3" input="SourceAlpha"/><feGaussianBlur stdDeviation="3" result="d"/><feFlood flood-opacity="0.161"/><feComposite operator="in" in2="d"/><feComposite in="SourceGraphic"/></filter></defs><g transform="translate(-1688 -216.001)"><g class="d" transform="matrix(1, 0, 0, 1, 1688, 216)"><path class="a" d="M11831.5,3289h-186a38.5,38.5,0,1,1,0-77h186c-.062.108-.16,19.437-.194,38.3-.021,11.487-.046,38.251.189,38.691l0,0,0,0h0Zm-186-70a31.5,31.5,0,1,0,31.5,31.5A31.537,31.537,0,0,0,11645.5,3219Z" transform="translate(-11598 -3206)"/></g><g transform="translate(952.402 -306.998)"><path class="b" d="M11.58,27.342a2.809,2.809,0,0,0,0-3.963,2.662,2.662,0,0,0-3.874,0,2.809,2.809,0,0,0,0,3.963,2.662,2.662,0,0,0,3.874,0ZM4.133,13.429v.66H12.4V8.453H9a.637.637,0,0,0-.474.2l-4.2,4.293A.667.667,0,0,0,4.133,13.429ZM30.867,27.342a2.809,2.809,0,0,0,0-3.963,2.662,2.662,0,0,0-3.875,0,2.809,2.809,0,0,0,0,3.963,2.662,2.662,0,0,0,3.875,0ZM36.786.418a1.369,1.369,0,0,1,.409.991V23.952a1.811,1.811,0,0,1-.086.583.832.832,0,0,1-.291.407q-.2.154-.355.253a1.163,1.163,0,0,1-.506.132l-.484.044q-.129.011-.549,0t-.484-.011a5.492,5.492,0,0,1-1.614,3.985,5.422,5.422,0,0,1-7.792,0,5.492,5.492,0,0,1-1.614-3.985H15.154a5.493,5.493,0,0,1-1.614,3.985A5.251,5.251,0,0,1,9.643,31a5.251,5.251,0,0,1-3.9-1.651A5.493,5.493,0,0,1,4.133,25.36H2.755q-.065,0-.484.011t-.549,0l-.484-.044A1.163,1.163,0,0,1,.732,25.2q-.151-.1-.355-.253a.832.832,0,0,1-.291-.407A1.809,1.809,0,0,1,0,23.952a1.369,1.369,0,0,1,.409-.991,1.31,1.31,0,0,1,.969-.418V15.5q0-.176-.011-.77t0-.837q.011-.242.054-.76a3.733,3.733,0,0,1,.14-.814,4.048,4.048,0,0,1,.3-.671,2.987,2.987,0,0,1,.484-.66L6.608,6.626a3.283,3.283,0,0,1,1.087-.7,3.257,3.257,0,0,1,1.259-.286H12.4V1.409a1.369,1.369,0,0,1,.409-.991A1.31,1.31,0,0,1,13.776,0H35.818A1.31,1.31,0,0,1,36.786.418Z" transform="translate(763 552)"/><g class="c" transform="matrix(1, 0, 0, 1, 735.6, 523)"><path class="a" d="M10683.528,3549.994a5.283,5.283,0,0,1-3.9-1.65,5.524,5.524,0,0,1-1.613-3.985h-8.267a5.526,5.526,0,0,1-1.612,3.985,5.425,5.425,0,0,1-7.793,0,5.524,5.524,0,0,1-1.615-3.985h-1.376c-.043,0-.207,0-.486.011-.146,0-.259.006-.346.006s-.156,0-.2-.006l-.085-.008c-.093-.008-.226-.02-.4-.038a1.136,1.136,0,0,1-.5-.131c-.1-.067-.226-.154-.354-.252a.841.841,0,0,1-.292-.408,1.86,1.86,0,0,1-.086-.582,1.363,1.363,0,0,1,.41-.99,1.31,1.31,0,0,1,.969-.418V3534.5c0-.077,0-.216-.006-.437l0-.333c-.008-.4-.008-.673,0-.837s.022-.385.054-.76a3.573,3.573,0,0,1,.14-.813,3.85,3.85,0,0,1,.3-.671,3.081,3.081,0,0,1,.485-.663l4.261-4.358a3.321,3.321,0,0,1,1.087-.706,3.269,3.269,0,0,1,1.259-.284H10667v-4.226a1.383,1.383,0,0,1,.407-.993,1.3,1.3,0,0,1,.969-.416h22.041a1.31,1.31,0,0,1,.969.416,1.375,1.375,0,0,1,.41.993v22.542a1.86,1.86,0,0,1-.086.582.841.841,0,0,1-.292.408c-.138.1-.257.189-.354.252a1.127,1.127,0,0,1-.5.131c-.166.017-.294.028-.385.037h-.017l-.084.008c-.045,0-.112.006-.2.006s-.2,0-.346-.006c-.279-.008-.443-.011-.486-.011a5.523,5.523,0,0,1-1.612,3.985A5.285,5.285,0,0,1,10683.528,3549.994Zm0-8.452a2.644,2.644,0,0,0-1.939.834,2.813,2.813,0,0,0,0,3.963,2.659,2.659,0,0,0,3.874,0,2.808,2.808,0,0,0,0-3.963A2.629,2.629,0,0,0,10683.528,3541.542Zm-19.287,0a2.635,2.635,0,0,0-1.937.834,2.808,2.808,0,0,0,0,3.963,2.661,2.661,0,0,0,3.875,0,2.808,2.808,0,0,0,0-3.963A2.635,2.635,0,0,0,10664.241,3541.542Zm-.646-14.09a.639.639,0,0,0-.473.2l-4.2,4.293a.668.668,0,0,0-.193.483v.66H10667v-5.635Z" transform="translate(-10627.2 -3490)"/></g></g></g></svg>