<svg xmlns="http://www.w3.org/2000/svg" width="91.616" height="110.484" viewBox="0 0 91.616 110.484"><defs><style>.a{fill:#fedf30;}.b{fill:#fad706;}.c{fill:#202020;}.d{fill:#fff3ef;}.e{fill:#f1f0f0;}.f{fill:#b6c4cf;}.g{fill:#929292;}</style></defs><g transform="translate(-57.784 -16.958)"><path class="a" d="M163.376,112.141l-9.018-10.489a1.773,1.773,0,0,0-2.5-.188l-5.613,4.825a1.774,1.774,0,0,0-.188,2.5l9.018,10.489a1.773,1.773,0,0,0,2.5.188l5.613-4.825a1.774,1.774,0,0,0,.189-2.5Z" transform="translate(-80.293 -64.195)"/><path class="b" d="M133.725,73.747l-3.808-4.429a1.774,1.774,0,0,0-2.5-.188l-13.1,11.259a1.774,1.774,0,0,0-.188,2.5l3.808,4.429a1.774,1.774,0,0,0,2.5.188l13.1-11.259a1.774,1.774,0,0,0,.189-2.5Z" transform="translate(-55.918 -39.507)"/><path class="b" d="M410.136,107.5a1.773,1.773,0,0,0-.612-1.211l-5.613-4.825a1.774,1.774,0,0,0-2.5.188l-9.018,10.489a1.774,1.774,0,0,0,.189,2.5l5.613,4.825a1.774,1.774,0,0,0,2.5-.188l9.018-10.489A1.775,1.775,0,0,0,410.136,107.5Z" transform="translate(-268.378 -64.195)"/><path class="b" d="M434.109,80.388l-13.1-11.259a1.774,1.774,0,0,0-2.5.188L414.7,73.746a1.773,1.773,0,0,0,.189,2.5l13.1,11.259a1.773,1.773,0,0,0,1.156.429q.067,0,.133,0a1.774,1.774,0,0,0,1.211-.612l3.808-4.429a1.773,1.773,0,0,0-.188-2.5Z" transform="translate(-285.413 -39.506)"/><path class="c" d="M285.271,59.018h10.883V74.561H285.271Z" transform="translate(-186.915 -32.114)"/><path d="M260.969,16.958h-20a3.4,3.4,0,0,0-3.4,3.4v4.126a3.4,3.4,0,0,0,3.4,3.4h19.89l4.829-1.3V18.342Z" transform="translate(-150.499)"/><path class="c" d="M341.718,16.958h-7.094a3.4,3.4,0,0,1,3.4,3.4v4.126a3.4,3.4,0,0,1-3.4,3.4h7.094a3.4,3.4,0,0,0,3.4-3.4V20.355A3.4,3.4,0,0,0,341.718,16.958Z" transform="translate(-224.598)"/><path d="M149.3,188.3a45.611,45.611,0,0,1,9.32-89.631c4.623-.24,45.086,7.181,45.086,44.159,0,27.1-24.717,48.572-46.255,46.867a45.847,45.847,0,0,1-8.151-1.4Z" transform="translate(-57.206 -62.385)"/><path class="c" d="M296.829,98.478q-1.791,0-3.547.136a45.605,45.605,0,0,1,0,90.934q1.756.135,3.547.136a45.6,45.6,0,0,0,0-91.206Z" transform="translate(-193.032 -62.243)"/><circle class="d" cx="35.514" cy="35.514" r="35.514" transform="translate(68.283 46.325)"/><path class="e" d="M301.284,141.432a35.6,35.6,0,0,0-8.177-.123c.361.036.721.076,1.083.123a35.518,35.518,0,0,1-1,70.555,35.513,35.513,0,0,0,8.095-70.555Z" transform="translate(-192.898 -94.809)"/><g transform="translate(70.529 48.613)"><path class="f" d="M302.986,158.683a1.651,1.651,0,0,1-1.651-1.651v-4.56a1.651,1.651,0,0,1,3.3,0v4.56A1.651,1.651,0,0,1,302.986,158.683Z" transform="translate(-269.71 -150.822)"/><path class="f" d="M384.351,196.338a1.65,1.65,0,0,1-1.167-2.818l3.225-3.225a1.65,1.65,0,1,1,2.334,2.334l-3.225,3.225A1.646,1.646,0,0,1,384.351,196.338Z" transform="translate(-331.835 -180.592)"/><path class="f" d="M422.869,287.86h-4.56a1.651,1.651,0,0,1,0-3.3h4.56a1.651,1.651,0,1,1,0,3.3Z" transform="translate(-357.762 -252.934)"/><path class="f" d="M388.191,372.45a1.647,1.647,0,0,1-1.167-.483l-3.225-3.225a1.651,1.651,0,0,1,2.334-2.334l3.225,3.225a1.65,1.65,0,0,1-1.167,2.818Z" transform="translate(-332.304 -315.058)"/><path class="f" d="M303.856,407.744a1.651,1.651,0,0,1-1.651-1.651v-4.56a1.651,1.651,0,1,1,3.3,0v4.56A1.651,1.651,0,0,1,303.856,407.744Z" transform="translate(-270.374 -340.986)"/><path class="f" d="M208.854,373.065a1.651,1.651,0,0,1-1.167-2.818l3.225-3.225a1.651,1.651,0,0,1,2.334,2.334l-3.225,3.225A1.646,1.646,0,0,1,208.854,373.065Z" transform="translate(-197.838 -315.528)"/><path class="f" d="M173.809,288.73h-4.56a1.651,1.651,0,0,1,0-3.3h4.56a1.651,1.651,0,0,1,0,3.3Z" transform="translate(-167.598 -253.598)"/><path class="f" d="M211.464,196.953a1.645,1.645,0,0,1-1.167-.483l-3.225-3.225a1.651,1.651,0,0,1,2.334-2.334l3.225,3.225a1.65,1.65,0,0,1-1.167,2.818Z" transform="translate(-197.368 -181.062)"/></g><path class="g" d="M302.557,238a1.773,1.773,0,0,1-1.774-1.774V224.3a1.774,1.774,0,0,1,3.547,0v11.926A1.774,1.774,0,0,1,302.557,238Z" transform="translate(-198.759 -156.957)"/><path class="g" d="M323.969,307.038a1.768,1.768,0,0,1-1.254-.52L309.8,293.607a1.774,1.774,0,0,1,2.509-2.508l12.911,12.912a1.774,1.774,0,0,1-1.254,3.028Z" transform="translate(-205.249 -208.917)"/><path d="M297.777,282.636a3.564,3.564,0,1,1,3.564-3.564A3.568,3.568,0,0,1,297.777,282.636Z" transform="translate(-193.743 -197.41)"/></g></svg>