<svg xmlns="http://www.w3.org/2000/svg" width="25" height="25" viewBox="0 0 25 25"><g transform="translate(-852 -630)"><path d="M17.857,5.357h5.8A1.334,1.334,0,0,1,25,6.7V23.661A1.334,1.334,0,0,1,23.661,25H10.268a1.334,1.334,0,0,1-1.339-1.339V19.643H1.339a1.292,1.292,0,0,1-.949-.391A1.291,1.291,0,0,1,0,18.3V8.929A3.221,3.221,0,0,1,.279,7.7a3.246,3.246,0,0,1,.67-1.06L6.641.949A3.246,3.246,0,0,1,7.7.279,3.221,3.221,0,0,1,8.929,0h5.8a1.291,1.291,0,0,1,.949.391,1.292,1.292,0,0,1,.391.949V5.915A3.549,3.549,0,0,1,17.857,5.357ZM16.071,12.5V8.329L11.9,12.5ZM7.143,7.143V2.972L2.972,7.143Zm2.065,5.915A3.246,3.246,0,0,1,9.877,12l4.408-4.409v-5.8H8.929v5.8A1.334,1.334,0,0,1,7.589,8.929h-5.8v8.929H8.929V14.286A3.221,3.221,0,0,1,9.208,13.058ZM10.714,23H23V7.143H17.857v5.8a1.334,1.334,0,0,1-1.339,1.339h-5.8Z" transform="translate(852 630)"/></g></svg>