<svg xmlns="http://www.w3.org/2000/svg" width="19.943" height="20.683" viewBox="0 0 19.943 20.683"><defs><style>.a{fill:none;stroke:#959ba4;}.b{fill:#959ba4;}</style></defs><g transform="translate(-9.412 -0.044)"><g transform="translate(9.997 0.663)"><g transform="translate(0 0)"><path class="a" d="M28.227,10.034a.573.573,0,0,1,0-.507l.73-1.493a1.7,1.7,0,0,0-.733-2.255L26.756,5a.573.573,0,0,1-.3-.41l-.287-1.637A1.7,1.7,0,0,0,24.252,1.56l-1.645.233a.573.573,0,0,1-.482-.157L20.931.481a1.7,1.7,0,0,0-2.371,0L17.365,1.636a.574.574,0,0,1-.482.157L15.238,1.56A1.7,1.7,0,0,0,13.32,2.954L13.033,4.59a.573.573,0,0,1-.3.41l-1.468.779a1.7,1.7,0,0,0-.733,2.255l.73,1.493a.573.573,0,0,1,0,.507l-.73,1.493a1.7,1.7,0,0,0,.733,2.255l1.468.779a.573.573,0,0,1,.3.41l.287,1.637a1.7,1.7,0,0,0,1.674,1.411A1.745,1.745,0,0,0,15.238,18l1.645-.233a.573.573,0,0,1,.482.157L18.56,19.08a1.7,1.7,0,0,0,2.371,0l1.194-1.155a.574.574,0,0,1,.482-.157L24.252,18a1.7,1.7,0,0,0,1.919-1.394l.287-1.636a.573.573,0,0,1,.3-.41l1.468-.779a1.7,1.7,0,0,0,.733-2.255Z" transform="translate(-10.359 0.002)"/></g></g><g transform="translate(16.288 6.811)"><g transform="translate(0.027 0.565)"><g transform="translate(0)"><path class="b" d="M149.81,143.91a.4.4,0,0,0-.571,0l-5.329,5.329a.4.4,0,1,0,.571.571l5.329-5.329A.4.4,0,0,0,149.81,143.91Z" transform="translate(-143.792 -143.792)"/></g></g><g transform="translate(0 0)"><path class="b" d="M144.282,123.116a1.48,1.48,0,1,0,1.48,1.48A1.482,1.482,0,0,0,144.282,123.116Zm0,2.153a.673.673,0,1,1,.673-.673A.674.674,0,0,1,144.282,125.269Z" transform="translate(-142.802 -123.116)"/></g><g transform="translate(3.23 4.307)"><path class="b" d="M262.4,280.61a1.48,1.48,0,1,0,1.48,1.48A1.482,1.482,0,0,0,262.4,280.61Zm0,2.153a.673.673,0,1,1,.673-.673A.674.674,0,0,1,262.4,282.763Z" transform="translate(-260.922 -280.61)"/></g></g></g></svg>