<svg xmlns="http://www.w3.org/2000/svg" width="62.183" height="57.605" viewBox="0 0 62.183 57.605"><defs><style>.a{fill:#fff;}</style></defs><path class="a" d="M0,174.919H2.392v5.06a2.389,2.389,0,0,0,2.393,2.39H9.564a2.391,2.391,0,0,0,2.394-2.39v-5.06H50.225v5.06a2.389,2.389,0,0,0,2.391,2.39H57.4a2.39,2.39,0,0,0,2.393-2.39v-5.06h2.391v-6.9H0Z" transform="translate(0 -124.764)"/><path class="a" d="M51.982,8.482S44.844,7.295,38.643,6.508L37.282,1.132A1.5,1.5,0,0,0,35.827,0H26.356A1.5,1.5,0,0,0,24.9,1.132L23.54,6.508c-6.2.787-13.334,1.974-13.334,1.974L2.515,29C.9,29.448,0,29.747,0,29.747V41.929H62.183V29.747s-.9-.3-2.512-.748ZM9.162,39.266a4.031,4.031,0,1,1,4.03-4.03A4.03,4.03,0,0,1,9.162,39.266ZM8.229,27.348l5.482-14.6c3.661-.589,13.689-2.141,17.383-2.141s13.721,1.552,17.379,2.136l5.472,14.6s-14.5-2.383-22.855-2.383S8.229,27.348,8.229,27.348ZM53.021,39.266a4.031,4.031,0,1,1,4.03-4.03A4.03,4.03,0,0,1,53.021,39.266Z"/><path class="a" d="M145.276,56.438l1.808-.8.19-.084a.257.257,0,0,0-.207-.471l-.093.041a5.792,5.792,0,0,0-11.515,0l-.093-.041a.257.257,0,0,0-.207.471l.19.084,1.808.8a2.474,2.474,0,0,0-.364.377l-1.348-.575a5.758,5.758,0,0,0,1.03,2.848l-.03.016a.257.257,0,0,0,.242.454l.107-.057a5.821,5.821,0,0,0,.628.635,4.843,4.843,0,0,0,7.588,0,5.822,5.822,0,0,0,.627-.635l.107.057a.257.257,0,0,0,.242-.454l-.03-.016a5.758,5.758,0,0,0,1.031-2.848l-1.348.575A2.484,2.484,0,0,0,145.276,56.438Zm-6.807,3.993.224.057.062-.25-.243-.062-.063.238a3.694,3.694,0,0,1-1.536-2.5,1.183,1.183,0,0,1,.066-.378l.016,0-.007-.027c.362-.988,2.027-1.669,4.227-1.669s3.865.681,4.227,1.669l-.007.027.016,0a1.182,1.182,0,0,1,.066.378,3.693,3.693,0,0,1-1.534,2.5l-.063-.237-.243.062.062.25.223-.057a4.2,4.2,0,0,1-5.5,0Z" transform="translate(-100.249 -37.105)"/><path class="a" d="M158.64,75.681l0,.257h.243l0-.257h-.251Z" transform="translate(-117.798 -56.196)"/><path class="a" d="M172.75,77.913l.238.058.062-.25-.241-.058Z" transform="translate(-128.276 -57.669)"/><path class="a" d="M152.85,76.1l.037.255.243-.033-.033-.255Z" transform="translate(-113.499 -56.482)"/><path class="a" d="M149.993,76.541l.047.253.242-.043-.044-.254Z" transform="translate(-111.378 -56.803)"/><path class="a" d="M167.144,76.751l.242.043.047-.253-.245-.043Z" transform="translate(-124.113 -56.803)"/><path class="a" d="M147.156,77.088l.055.252.24-.051-.052-.252Z" transform="translate(-109.271 -57.204)"/><path class="a" d="M164.32,76.319l.243.033.037-.255-.247-.034Z" transform="translate(-122.016 -56.481)"/><path class="a" d="M155.731,75.791l.024.256q.122-.012.243-.02l-.018-.257Z" transform="translate(-115.638 -56.264)"/><path class="a" d="M170.25,77.087l-.243-.051-.052.252.24.051Z" transform="translate(-126.2 -57.203)"/><path class="a" d="M161.487,76.028l.244.02.023-.256-.249-.02Z" transform="translate(-119.913 -56.264)"/><path class="a" d="M144.582,77.663l-.241.058.062.25.239-.058Z" transform="translate(-107.18 -57.669)"/><path class="a" d="M151.255,90.555l.25.052.05-.252-.245-.051Z" transform="translate(-112.315 -67.055)"/><path class="a" d="M162.979,90.886l.035.255c.084-.012.169-.025.253-.038l-.041-.254Z" transform="translate(-121.02 -67.46)"/><path class="a" d="M165.848,90.352l.05.252.25-.052-.055-.251Z" transform="translate(-123.151 -67.053)"/><path class="a" d="M154.175,91.107c.084.013.168.026.253.038l.035-.255-.247-.037Z" transform="translate(-114.483 -67.463)"/><path class="a" d="M160.094,91.227l.012.257c.084,0,.17-.009.257-.017l-.021-.256C160.258,91.217,160.175,91.223,160.094,91.227Z" transform="translate(-118.878 -67.729)"/><path class="a" d="M157.134,91.468q.13.011.257.016l.012-.257c-.081,0-.164-.009-.247-.016Z" transform="translate(-116.68 -67.73)"/></svg>