<svg xmlns="http://www.w3.org/2000/svg" width="20.321" height="14.923" viewBox="0 0 20.321 14.923"><g transform="translate(5.656 -0.086)"><g transform="translate(-4 -2)"><g transform="translate(-1.656 -65.914)"><g transform="translate(0 68)"><path d="M17.94,68H2.381A2.384,2.384,0,0,0,0,70.381V80.542a2.384,2.384,0,0,0,2.381,2.381H17.94a2.384,2.384,0,0,0,2.381-2.381V70.381A2.384,2.384,0,0,0,17.94,68Zm.794,12.542a.8.8,0,0,1-.794.794H2.381a.8.8,0,0,1-.794-.794V70.381a.8.8,0,0,1,.794-.794H17.94a.8.8,0,0,1,.794.794Z" transform="translate(0 -68)"/></g><g transform="translate(0.775 68.99)"><path d="M37.346,92.937l-8.438,6.276L20.47,92.937l-.948,1.274,9.386,6.981,9.386-6.981Z" transform="translate(-19.522 -92.937)"/></g></g></g></g></svg>