<svg xmlns="http://www.w3.org/2000/svg" width="45" height="46" viewBox="0 0 45 46"><defs><style>.a{fill:#fff;stroke:#fad706;}.b{stroke:none;}.c{fill:none;}</style></defs><g transform="translate(-0.446 0.422)"><g class="a" transform="translate(0.446 -0.422)"><ellipse class="b" cx="22.5" cy="23" rx="22.5" ry="23"/><ellipse class="c" cx="22.5" cy="23" rx="22" ry="22.5"/></g><g transform="translate(12.399 12.399)"><path d="M4.512,145.073,3.8,147.719l-2.59.055a10.2,10.2,0,0,1-.075-9.506h0l2.306.423,1.01,2.292a6.075,6.075,0,0,0,.057,4.09Z" transform="translate(0 -132.77)"/><path d="M271.406,208.176a10.176,10.176,0,0,1-3.629,9.84h0l-2.9-.148-.411-2.566a6.067,6.067,0,0,0,2.61-3.1h-5.443v-4.027h9.778Z" transform="translate(-251.225 -199.898)"/><path d="M45.848,315.223h0a10.183,10.183,0,0,1-15.339-3.114l3.3-2.7a6.054,6.054,0,0,0,8.724,3.1Z" transform="translate(-29.296 -297.106)"/><path d="M44.163,2.344l-3.3,2.7a6.053,6.053,0,0,0-8.925,3.17L28.625,5.5h0A10.182,10.182,0,0,1,44.163,2.344Z" transform="translate(-27.486)"/></g></g></svg>