<svg xmlns="http://www.w3.org/2000/svg" xmlns:xlink="http://www.w3.org/1999/xlink" width="51.631" height="52.939" viewBox="0 0 51.631 52.939"><defs><style>.a{fill:#fff;fill-rule:evenodd;}.b{fill:none;stroke:#000;stroke-miterlimit:2.613;}.c{clip-path:url(#a);}</style><clipPath id="a"><path d="M1,0H52.631V52.939H1ZM1,0" transform="translate(-1)"/></clipPath></defs><g transform="translate(12233 -1787)"><path class="a" d="M99.879,78.968v-21h8.7l2.89,11.336,2.907-11.336h8.447v21h-6.035V64.962l-3.865,14.005h-4.1L104.959,65.2V78.968h-5.08" transform="translate(-12305.724 1744.951)"/><path class="b" d="M99.879-113.792v-21h8.7l2.89,11.336,2.907-11.336h8.447v21h-6.035V-127.8l-3.865,14.005h-4.1l-3.864-13.766v13.766Zm0,0" transform="translate(-12305.724 1937.711)"/><path class="a" d="M31.547,28.9l15.336-9.981a15.925,15.925,0,0,0-12.01-5.648,15.629,15.629,0,0,0,0,31.258,15.926,15.926,0,0,0,11.814-5.387Zm-.016.016L56.3,14.988A25.975,25.975,0,0,0,34.858,3.367a25.545,25.545,0,1,0,0,51.089A25.971,25.971,0,0,0,56.3,42.935L31.531,28.912" transform="translate(-12240.029 1784.557)"/><path class="a" d="M26.9,78.968v-21H33.2v8.447l5.8-8.447h6.276l-5.8,7.969,6.515,13.03H38.736l-3.369-7.731L33.2,74.145v4.822H26.9" transform="translate(-12252.789 1744.951)"/><path class="b" d="M26.9-113.792v-21H33.2v8.447l5.8-8.447h6.276l-5.8,7.968,6.515,13.03H38.736l-3.369-7.73L33.2-118.615v4.822Zm0,0" transform="translate(-12252.789 1937.711)"/></g></svg>