<svg xmlns="http://www.w3.org/2000/svg" width="49" height="49" viewBox="0 0 49 49"><defs><style>.a{stroke:#000;}.b{fill:#fff;}.c{stroke:none;}.d{fill:none;}</style></defs><g transform="translate(-23 -124)"><g class="a" transform="translate(23 124)"><rect class="c" width="49" height="49" rx="7"/><rect class="d" x="0.5" y="0.5" width="48" height="48" rx="6.5"/></g><g transform="translate(-1.726 136.488)"><g transform="translate(39.451)"><g transform="translate(0)"><path class="b" d="M56.894,2.993a10.218,10.218,0,0,0-17.443,7.225c0,5.521,5.22,10.113,8.025,12.581.39.343.726.639.994.889a1.761,1.761,0,0,0,2.4,0c.268-.251.6-.547.994-.889,2.8-2.467,8.025-7.059,8.025-12.581A10.151,10.151,0,0,0,56.894,2.993ZM50.927,21.736c-.4.35-.742.653-1.026.918a.341.341,0,0,1-.465,0c-.284-.265-.628-.567-1.026-.918-2.637-2.319-7.545-6.637-7.545-11.518a8.8,8.8,0,0,1,17.605,0C58.472,15.1,53.564,19.416,50.927,21.736Z" transform="translate(-39.451 0)"/></g></g><g transform="translate(45.166 5.329)"><g transform="translate(0)"><path class="b" d="M165.073,112.938a4.5,4.5,0,1,0,4.5,4.5A4.508,4.508,0,0,0,165.073,112.938Zm0,7.59a3.088,3.088,0,1,1,3.088-3.088A3.091,3.091,0,0,1,165.073,120.528Z" transform="translate(-160.57 -112.938)"/></g></g></g></g></svg>