<svg xmlns="http://www.w3.org/2000/svg" width="46.078" height="59.244" viewBox="0 0 46.078 59.244"><defs><style>.a{fill:#fff;}</style></defs><path class="a" d="M153.274,59.244H120.361a6.583,6.583,0,0,1-6.583-6.583V9.874a6.583,6.583,0,0,1,6.583-6.583h6.583v9.874h19.748V3.291h6.583a6.583,6.583,0,0,1,6.583,6.583V52.661a6.583,6.583,0,0,1-6.583,6.583ZM125.3,23.039a4.937,4.937,0,1,0,4.937,4.937,4.937,4.937,0,0,0-4.937-4.937Zm0,16.457a4.937,4.937,0,1,0,4.937,4.937A4.937,4.937,0,0,0,125.3,39.5Zm26.33-16.457H135.172a1.646,1.646,0,1,0,0,3.291h16.457a1.646,1.646,0,0,0,0-3.291Zm0,6.583H135.172a1.646,1.646,0,1,0,0,3.291h16.457a1.646,1.646,0,0,0,0-3.291Zm0,9.874H135.172a1.646,1.646,0,1,0,0,3.291h16.457a1.646,1.646,0,0,0,0-3.291Zm0,6.583H135.172a1.646,1.646,0,1,0,0,3.291h16.457a1.646,1.646,0,0,0,0-3.291Zm-11.52-36.2h-6.583a3.291,3.291,0,0,1-3.291-3.291V3.291A3.291,3.291,0,0,1,133.526,0h6.583A3.291,3.291,0,0,1,143.4,3.291V6.583a3.291,3.291,0,0,1-3.291,3.291Z" transform="translate(-113.778)"/></svg>