<svg xmlns="http://www.w3.org/2000/svg" width="496.855" height="312.293" viewBox="0 0 496.855 312.293"><defs><style>.a{fill:#3f3d56;}.b{fill:#d0cde1;}.c{opacity:0.1;}</style></defs><g transform="translate(0 0)"><path class="a" d="M1057.732,344.145h-.839V321.158a13.3,13.3,0,0,0-13.3-13.3h-48.7a13.3,13.3,0,0,0-13.3,13.3v126.11a13.3,13.3,0,0,0,13.3,13.3h48.7a13.3,13.3,0,0,0,13.3-13.3v-86.76h.839Z" transform="translate(-560.877 -215.884)"/><path class="b" d="M1058.526,326.986V452.913a9.938,9.938,0,0,1-9.937,9.937H999.653a9.934,9.934,0,0,1-9.933-9.936V326.986a9.933,9.933,0,0,1,9.933-9.933h5.937a4.723,4.723,0,0,0,4.37,6.5h27.9a4.714,4.714,0,0,0,4.37-6.5h6.357a9.937,9.937,0,0,1,9.937,9.933Z" transform="translate(-565.341 -220.93)"/><rect width="56.887" height="15.35" transform="translate(427.034 160.595)"/><path class="a" d="M1058.035,468.106h-55.081a1.356,1.356,0,0,1-1.354-1.354V453.207a1.356,1.356,0,0,1,1.354-1.354h55.081a1.356,1.356,0,0,1,1.354,1.354v13.544a1.356,1.356,0,0,1-1.354,1.354Zm-55.081-15.35a.452.452,0,0,0-.451.451v13.544a.452.452,0,0,0,.452.452h55.081a.452.452,0,0,0,.452-.451V453.207a.452.452,0,0,0-.451-.451Z" transform="translate(-571.858 -294.87)"/><rect class="a" width="7.224" height="0.903" transform="translate(433.354 169.173)"/><rect class="a" width="7.224" height="0.903" transform="translate(443.287 169.173)"/><rect class="a" width="7.224" height="0.903" transform="translate(453.219 169.173)"/><rect class="a" width="7.224" height="0.903" transform="translate(463.152 169.173)"/><rect class="a" width="7.224" height="0.903" transform="translate(473.084 169.173)"/><path class="c" d="M1058.526,533.609v12.8a9.937,9.937,0,0,1-9.937,9.937H999.653a9.934,9.934,0,0,1-9.933-9.936v-58.9Z" transform="translate(-565.341 -314.431)"/><rect class="b" width="213.55" height="104.744" transform="translate(45.081 207.549)"/><path class="c" d="M308.861,668.6H150.5a.906.906,0,0,1-.9-.9V564.756a.906.906,0,0,1,.9-.9h2Z" transform="translate(-104.52 -356.305)"/><rect class="a" width="330.935" height="0.903" transform="translate(143.955 221.545)"/><path class="a" d="M310.174,106.1H215.593v-1.949H172.707V106.1H77.736a6.4,6.4,0,0,0-6.4,6.4V242a6.4,6.4,0,0,0,6.4,6.4H310.174a6.4,6.4,0,0,0,6.4-6.4V112.494a6.4,6.4,0,0,0-6.4-6.4Z" transform="translate(-61.592 -104.147)"/><rect class="b" width="228.075" height="128.663" transform="translate(18.326 13.254)"/><circle cx="2.339" cy="2.339" r="2.339" transform="translate(129.829 5.068)"/><path class="a" d="M232.373,229.98h-5.418a1.356,1.356,0,0,1-1.354-1.354v-5.418a1.356,1.356,0,0,1,1.354-1.354h5.418a1.356,1.356,0,0,1,1.354,1.354v5.418a1.356,1.356,0,0,1-1.354,1.354Zm-5.418-7.224a.452.452,0,0,0-.451.451v5.418a.452.452,0,0,0,.451.451h5.418a.452.452,0,0,0,.451-.451v-5.418a.452.452,0,0,0-.451-.451Z" transform="translate(-146.207 -168.711)"/><rect class="a" width="102.938" height="0.903" transform="translate(79.845 60.366)"/><rect width="23.928" height="7.224" transform="translate(156.145 85.197)"/><path class="a" d="M424.078,294.98H401.955a1.356,1.356,0,0,1-1.354-1.354v-5.418a1.356,1.356,0,0,1,1.354-1.354h22.123a1.356,1.356,0,0,1,1.354,1.354v5.418A1.356,1.356,0,0,1,424.078,294.98Zm-22.123-7.224a.452.452,0,0,0-.452.451v5.418a.452.452,0,0,0,.451.451h22.123a.452.452,0,0,0,.452-.452v-5.418a.452.452,0,0,0-.452-.451Z" transform="translate(-242.198 -204.365)"/><rect width="45.148" height="31.604" transform="translate(317.775 93.324)"/><path class="a" d="M808.749,334.763H765.407a1.808,1.808,0,0,1-1.806-1.806v-29.8a1.808,1.808,0,0,1,1.806-1.806h43.342a1.808,1.808,0,0,1,1.806,1.806v29.8A1.808,1.808,0,0,1,808.749,334.763Zm-43.342-31.6v29.8H808.75v-29.8Z" transform="translate(-441.311 -212.318)"/><path class="a" d="M812.011,282.558H810.2a14.9,14.9,0,1,0-29.8,0H778.6a16.7,16.7,0,0,1,33.41,0Z" transform="translate(-449.539 -192.846)"/><path class="a" d="M814.63,324.861a4.515,4.515,0,1,0-6.9,3.825v4.846a2.39,2.39,0,0,0,2.39,2.39h0a2.39,2.39,0,0,0,2.39-2.39v-4.846A4.507,4.507,0,0,0,814.63,324.861Z" transform="translate(-464.348 -222.733)"/><rect class="a" width="7.224" height="0.903" transform="translate(128.379 254.051)"/><rect class="a" width="7.224" height="0.903" transform="translate(138.312 254.051)"/><rect class="a" width="7.224" height="0.903" transform="translate(148.244 254.051)"/><rect class="a" width="7.224" height="0.903" transform="translate(158.177 254.051)"/><rect class="a" width="7.224" height="0.903" transform="translate(168.109 254.051)"/><path class="a" d="M384.151,649.4H172.407A1.808,1.808,0,0,1,170.6,647.6V544.66a1.808,1.808,0,0,1,1.806-1.806H384.151a1.808,1.808,0,0,1,1.806,1.806V647.6A1.808,1.808,0,0,1,384.151,649.4ZM172.407,544.66V647.6H384.153V544.66Z" transform="translate(-116.039 -344.786)"/><circle class="a" cx="2.709" cy="2.709" r="2.709" transform="translate(63.14 209.806)"/><circle class="a" cx="2.709" cy="2.709" r="2.709" transform="translate(72.621 209.806)"/><circle class="a" cx="2.709" cy="2.709" r="2.709" transform="translate(82.102 209.806)"/><path class="a" d="M377.905,658.912h-60.95a1.356,1.356,0,0,1-1.354-1.354v-15.35a1.356,1.356,0,0,1,1.354-1.354h60.95a1.356,1.356,0,0,1,1.354,1.354v15.35A1.356,1.356,0,0,1,377.905,658.912Zm-60.95-17.156a.452.452,0,0,0-.452.451v15.35a.452.452,0,0,0,.451.451h60.95a.452.452,0,0,0,.451-.451v-15.35a.452.452,0,0,0-.451-.451Z" transform="translate(-195.574 -398.541)"/><circle cx="8.127" cy="8.127" r="8.127" transform="translate(189.555 244.57)"/><path class="a" d="M483.179,659.009a8.578,8.578,0,1,1,8.578-8.578A8.578,8.578,0,0,1,483.179,659.009Zm0-16.253a7.675,7.675,0,1,0,7.675,7.675A7.675,7.675,0,0,0,483.179,642.756Z" transform="translate(-282.789 -399.089)"/><path class="a" d="M438.808,546.663l-4.371-4.371,1.277-1.277,2.853,2.852,7.961-11.312,1.477,1.04Z" transform="translate(-238.297 -292.117)"/><path class="c" d="M218.1,169.863H40.591V50.947Z" transform="translate(-22.265 -27.946)"/><path class="a" d="M311.133,410.963H288.874v-1.6a.318.318,0,0,0-.318-.318h-7.632a.318.318,0,0,0-.318.318v1.6h-4.77v-1.6a.318.318,0,0,0-.318-.318h-7.632a.318.318,0,0,0-.318.318v1.6H262.8v-1.6a.318.318,0,0,0-.318-.318H254.85a.318.318,0,0,0-.318.318v1.6h-4.77v-1.6a.318.318,0,0,0-.318-.318h-7.631a.318.318,0,0,0-.318.318v1.6h-4.77v-1.6a.318.318,0,0,0-.318-.318h-7.631a.318.318,0,0,0-.318.318v1.6h-4.77v-1.6a.318.318,0,0,0-.318-.318h-7.631a.318.318,0,0,0-.318.318v1.6h-4.77v-1.6a.318.318,0,0,0-.318-.318H150.551a.318.318,0,0,0-.318.318v1.6h-4.77v-1.6a.318.318,0,0,0-.318-.318h-7.632a.318.318,0,0,0-.318.318v1.6h-4.77v-1.6a.318.318,0,0,0-.318-.318h-7.632a.318.318,0,0,0-.318.318v1.6h-4.77v-1.6a.318.318,0,0,0-.318-.318h-7.632a.318.318,0,0,0-.318.318v1.6h-4.77v-1.6a.318.318,0,0,0-.318-.318H98.4a.318.318,0,0,0-.318.318v1.6h-4.77v-1.6a.318.318,0,0,0-.318-.318H85.364a.318.318,0,0,0-.318.318v1.6h-4.77v-1.6a.318.318,0,0,0-.318-.318H72.327a.318.318,0,0,0-.318.318v1.6H57.381A7.632,7.632,0,0,0,49.75,418.6v3.451a7.632,7.632,0,0,0,7.632,7.632H311.133a7.632,7.632,0,0,0,7.632-7.632V418.6a7.632,7.632,0,0,0-7.632-7.632Z" transform="translate(-49.75 -271.388)"/><path class="a" d="M328.146,258.225H208.955a1.356,1.356,0,0,1-1.354-1.354V207.207a1.356,1.356,0,0,1,1.354-1.354H328.146a1.356,1.356,0,0,1,1.354,1.354V256.87a1.356,1.356,0,0,1-1.354,1.354ZM208.955,206.756a.452.452,0,0,0-.451.452V256.87a.452.452,0,0,0,.451.452H328.146a.452.452,0,0,0,.451-.451V207.207a.452.452,0,0,0-.451-.452Z" transform="translate(-136.334 -159.935)"/><path class="a" d="M232.373,259.98h-5.418a1.356,1.356,0,0,1-1.354-1.354v-5.418a1.356,1.356,0,0,1,1.354-1.354h5.418a1.356,1.356,0,0,1,1.354,1.354v5.418a1.356,1.356,0,0,1-1.354,1.354Zm-5.418-7.224a.452.452,0,0,0-.451.451v5.418a.452.452,0,0,0,.451.451h5.418a.452.452,0,0,0,.451-.451v-5.418a.452.452,0,0,0-.451-.451Z" transform="translate(-146.207 -185.167)"/><rect class="a" width="102.938" height="0.903" transform="translate(79.845 73.91)"/><rect class="a" width="330.935" height="0.903" transform="translate(119.575 121.767)"/><circle class="a" cx="6.321" cy="6.321" r="6.321" transform="translate(113.254 115.447)"/><circle class="a" cx="4.966" cy="4.966" r="4.966" transform="translate(445.544 117.704)"/><circle class="a" cx="4.966" cy="4.966" r="4.966" transform="translate(469.924 217.481)"/><circle class="a" cx="4.966" cy="4.966" r="4.966" transform="translate(140.343 217.481)"/></g></svg>