<svg xmlns="http://www.w3.org/2000/svg" width="54" height="45" viewBox="0 0 54 45"><defs><style>.a{fill:#d7d7d7;}.b{fill:#fad706;}</style></defs><g transform="translate(-763 -552)"><path class="a" d="M16.812,39.695a4.077,4.077,0,0,0,0-5.753,3.864,3.864,0,0,0-5.625,0,4.078,4.078,0,0,0,0,5.753,3.864,3.864,0,0,0,5.625,0ZM6,19.5v.959H18V12.273H13.062a.925.925,0,0,0-.687.288L6.281,18.793A.968.968,0,0,0,6,19.5Zm38.813,20.2a4.077,4.077,0,0,0,0-5.753,3.864,3.864,0,0,0-5.625,0,4.077,4.077,0,0,0,0,5.753,3.864,3.864,0,0,0,5.625,0ZM53.406.607A1.988,1.988,0,0,1,54,2.045V34.773a2.629,2.629,0,0,1-.125.847,1.208,1.208,0,0,1-.422.591q-.3.224-.516.368a1.688,1.688,0,0,1-.734.192l-.7.064q-.187.016-.8,0t-.7-.016A7.974,7.974,0,0,1,47.656,42.6a7.872,7.872,0,0,1-11.312,0A7.974,7.974,0,0,1,34,36.818H22A7.974,7.974,0,0,1,19.656,42.6,7.623,7.623,0,0,1,14,45a7.623,7.623,0,0,1-5.656-2.4A7.974,7.974,0,0,1,6,36.818H4q-.094,0-.7.016t-.8,0l-.7-.064a1.688,1.688,0,0,1-.734-.192q-.219-.144-.516-.368a1.208,1.208,0,0,1-.422-.591A2.627,2.627,0,0,1,0,34.773a1.988,1.988,0,0,1,.594-1.438A1.9,1.9,0,0,1,2,32.727V22.5q0-.256-.016-1.119t0-1.215q.016-.351.078-1.1a5.419,5.419,0,0,1,.2-1.182,5.876,5.876,0,0,1,.437-.975,4.336,4.336,0,0,1,.7-.959L9.594,9.62A4.766,4.766,0,0,1,11.172,8.6,4.729,4.729,0,0,1,13,8.182h5V2.045A1.988,1.988,0,0,1,18.594.607,1.9,1.9,0,0,1,20,0H52A1.9,1.9,0,0,1,53.406.607Z" transform="translate(763 552)"/><path class="b" d="M53.406.607A1.988,1.988,0,0,1,54,2.045V34.773a2.629,2.629,0,0,1-.125.847,1.208,1.208,0,0,1-.422.591q-.3.224-.516.368a1.688,1.688,0,0,1-.734.192l-.7.064q-.187.016-.8,0t-.7-.016A7.974,7.974,0,0,1,47.656,42.6a7.872,7.872,0,0,1-11.312,0A7.974,7.974,0,0,1,34,36.818H22A7.974,7.974,0,0,1,19.656,42.6,7.623,7.623,0,0,1,14,45a7.623,7.623,0,0,1-5.656-2.4A7.974,7.974,0,0,1,6,36.818H4q-.094,0-.7.016t-.8,0l-.7-.064a1.688,1.688,0,0,1-.734-.192q-.219-.144-.516-.368a1.208,1.208,0,0,1-.422-.591A2.627,2.627,0,0,1,0,34.773a1.988,1.988,0,0,1,.594-1.438A1.9,1.9,0,0,1,2,32.727V22.5q0-.256-.016-1.119t0-1.215q.016-.351.078-1.1a5.419,5.419,0,0,1,.2-1.182,5.876,5.876,0,0,1,.437-.975,4.336,4.336,0,0,1,.7-.959L9.594,9.62A4.766,4.766,0,0,1,11.172,8.6,4.729,4.729,0,0,1,13,8.182h5V2.045A1.988,1.988,0,0,1,18.594.607,1.9,1.9,0,0,1,20,0H52A1.9,1.9,0,0,1,53.406.607Z" transform="translate(763 552)"/><path d="M4,15.4v.959H16V8.182H11.062a.925.925,0,0,0-.687.288L4.281,14.7A.968.968,0,0,0,4,15.4Z" transform="translate(765 556.091)"/><path d="M13.479,28.786a4.077,4.077,0,0,0,0-5.753,3.864,3.864,0,0,0-5.625,0,4.078,4.078,0,0,0,0,5.753,3.864,3.864,0,0,0,5.625,0Z" transform="translate(766.333 562.909)"/><path d="M32.146,28.786a4.077,4.077,0,0,0,0-5.753,3.864,3.864,0,0,0-5.625,0,4.077,4.077,0,0,0,0,5.753,3.864,3.864,0,0,0,5.625,0Z" transform="translate(775.667 562.909)"/></g></svg>