<svg xmlns="http://www.w3.org/2000/svg" width="54" height="46.44" viewBox="0 0 54 46.44"><defs><style>.a{fill:#fad706;}</style></defs><g transform="translate(-323 -554)"><path class="a" d="M19.286,3.87V7.74H34.714V3.87ZM33.75,27H54V41.6a4.844,4.844,0,0,1-4.821,4.838H4.821a4.635,4.635,0,0,1-3.405-1.421A4.666,4.666,0,0,1,0,41.6V27H20.25v4.927a1.959,1.959,0,0,0,1.929,1.935h9.643a1.959,1.959,0,0,0,1.929-1.935Zm-10.607.09h7.714v3.87H23.143ZM52.584,9.161A4.666,4.666,0,0,1,54,12.578V23.4H0V12.578A4.666,4.666,0,0,1,1.416,9.161,4.635,4.635,0,0,1,4.821,7.74H15.429V2.9A2.8,2.8,0,0,1,16.272.847,2.785,2.785,0,0,1,18.321,0H35.679a2.785,2.785,0,0,1,2.049.847A2.8,2.8,0,0,1,38.571,2.9V7.74H49.179A4.635,4.635,0,0,1,52.584,9.161Z" transform="translate(323 554)"/><path class="a" d="M10.714,2.15V6.02H26.143V2.15Z" transform="translate(331.571 555.72)"/><path class="a" d="M33.75,15H54V29.6a4.844,4.844,0,0,1-4.821,4.838H4.821a4.635,4.635,0,0,1-3.405-1.421A4.666,4.666,0,0,1,0,29.6V15H20.25v4.927a1.959,1.959,0,0,0,1.929,1.935h9.643a1.959,1.959,0,0,0,1.929-1.935Z" transform="translate(323 566)"/><path class="a" d="M12.857,15.05h7.714v3.87H12.857Z" transform="translate(333.286 566.04)"/><path class="a" d="M52.584,9.161A4.666,4.666,0,0,1,54,12.578V23.4H0V12.578A4.666,4.666,0,0,1,1.416,9.161,4.635,4.635,0,0,1,4.821,7.74H15.429V2.9A2.8,2.8,0,0,1,16.272.847,2.785,2.785,0,0,1,18.321,0H35.679a2.785,2.785,0,0,1,2.049.847A2.8,2.8,0,0,1,38.571,2.9V7.74H49.179A4.635,4.635,0,0,1,52.584,9.161Z" transform="translate(323 554)"/></g></svg>