<svg xmlns="http://www.w3.org/2000/svg" width="44.654" height="54" viewBox="0 0 44.654 54"><defs><style>.a{fill:#fad706;}</style></defs><g transform="translate(-761 -641)"><path class="a" d="M33.607,2.049l9.07,9.4a7.049,7.049,0,0,1,1.4,2.29,7.172,7.172,0,0,1,.581,2.652V51.107a2.842,2.842,0,0,1-.814,2.049A2.644,2.644,0,0,1,41.863,54H2.791a2.644,2.644,0,0,1-1.977-.844A2.842,2.842,0,0,1,0,51.107V2.893A2.842,2.842,0,0,1,.814.844,2.644,2.644,0,0,1,2.791,0H28.839A6.513,6.513,0,0,1,31.4.6,6.74,6.74,0,0,1,33.607,2.049ZM30.961,4.761A3.144,3.144,0,0,0,29.769,4.1v11.33H40.7a3.329,3.329,0,0,0-.64-1.236ZM3.6,50.143H40.933V19.286H28.839a2.644,2.644,0,0,1-1.977-.844,2.842,2.842,0,0,1-.814-2.049V3.857H3.6Zm7.563-24.107V24.107a.957.957,0,0,1,.262-.693.419.419,0,0,1,.669-.014H32.56a.419.419,0,0,1,.669.014.958.958,0,0,1,.262.693v1.929a.957.957,0,0,1-.262.693A.888.888,0,0,1,32.56,27H12.094a.888.888,0,0,1-.669-.271A.957.957,0,0,1,11.163,26.036Zm.93,4.564H32.56c.271.257.494.348.669.528a.958.958,0,0,1,.262.693V33.75a.957.957,0,0,1-.262.693c-.174.181-.4.271-.669-.243H12.094c-.271.514-.494.424-.669.243a.957.957,0,0,1-.262-.693V31.821a.957.957,0,0,1,.262-.693C11.6,30.948,11.822,30.857,12.094,30.6Zm0,7.2H32.56a1.972,1.972,0,0,0,.669,1.043.958.958,0,0,1,.262.693v1.929a.958.958,0,0,1-.262.693c-.174.181-.4.271-.669-.757H12.094c-.271,1.029-.494.938-.669.757a.957.957,0,0,1-.262-.693V39.536a.957.957,0,0,1,.262-.693A1.971,1.971,0,0,0,12.094,37.8Z" transform="translate(761 641)"/><path class="a" d="M33.607,2.049l9.07,9.4a7.049,7.049,0,0,1,1.4,2.29,7.172,7.172,0,0,1,.581,2.652V51.107a2.842,2.842,0,0,1-.814,2.049A2.644,2.644,0,0,1,41.863,54H2.791a2.644,2.644,0,0,1-1.977-.844A2.842,2.842,0,0,1,0,51.107V2.893A2.842,2.842,0,0,1,.814.844,2.644,2.644,0,0,1,2.791,0H28.839A6.513,6.513,0,0,1,31.4.6,6.74,6.74,0,0,1,33.607,2.049Z" transform="translate(761 641)"/><path d="M17.73,2.94a3.144,3.144,0,0,0-1.192-.663v11.33H27.469a3.329,3.329,0,0,0-.64-1.236Z" transform="translate(774.231 642.821)"/><path class="a" d="M2,48.428H39.333V17.571H27.239a2.644,2.644,0,0,1-1.977-.844,2.842,2.842,0,0,1-.814-2.049V2.143H2Z" transform="translate(762.6 642.714)"/><path d="M6.2,15.707V13.778a.957.957,0,0,1,.262-.693.419.419,0,0,1,.669-.014H27.6a.419.419,0,0,1,.669.014.958.958,0,0,1,.262.693v1.929a.957.957,0,0,1-.262.693.888.888,0,0,1-.669.271H7.132a.888.888,0,0,1-.669-.271A.957.957,0,0,1,6.2,15.707Z" transform="translate(765.962 651.329)"/><path d="M7.132,17H27.6c.271.257.494.348.669.528a.958.958,0,0,1,.262.693V20.15a.957.957,0,0,1-.262.693c-.174.181-.4.271-.669-.243H7.132c-.271.514-.494.424-.669.243A.957.957,0,0,1,6.2,20.15V18.221a.957.957,0,0,1,.262-.693C6.638,17.348,6.861,17.257,7.132,17Z" transform="translate(765.962 654.6)"/><path d="M7.132,21H27.6a1.972,1.972,0,0,0,.669,1.043.958.958,0,0,1,.262.693v1.929a.958.958,0,0,1-.262.693c-.174.181-.4.271-.669-.757H7.132c-.271,1.029-.494.938-.669.757a.957.957,0,0,1-.262-.693V22.736a.957.957,0,0,1,.262-.693A1.971,1.971,0,0,0,7.132,21Z" transform="translate(765.962 657.8)"/></g></svg>