<svg xmlns="http://www.w3.org/2000/svg" width="54" height="53.25" viewBox="0 0 54 53.25"><defs><style>.a{fill:#d7d7d7;}.b{fill:#fad706;}</style></defs><g transform="translate(-542.009 -552)"><path class="a" d="M51.259,10.643a4.318,4.318,0,0,1,1.913,1.491,5.189,5.189,0,0,1,.584,4.472L44.838,48.015a7.172,7.172,0,0,1-2.481,3.727,6.213,6.213,0,0,1-3.972,1.508H8.456A7.625,7.625,0,0,1,3.641,51.4,9.7,9.7,0,0,1,.415,46.837a6.7,6.7,0,0,1-.065-4.4q0-.139.1-.936t.13-1.283a2.053,2.053,0,0,0-.1-.745,1.827,1.827,0,0,1-.1-.676,2.248,2.248,0,0,1,.259-.728,8.507,8.507,0,0,1,.535-.815,8.508,8.508,0,0,0,.535-.815,23.914,23.914,0,0,0,1.459-3.172,19.749,19.749,0,0,0,.973-3.172,2.887,2.887,0,0,0,.016-1.04,3.253,3.253,0,0,1-.016-.971,2.954,2.954,0,0,1,.551-.971,5.7,5.7,0,0,0,.551-.8,21.925,21.925,0,0,0,1.362-3.189A14.967,14.967,0,0,0,7.419,20a5.353,5.353,0,0,0-.081-1.109,1.708,1.708,0,0,1,.016-.971,2.788,2.788,0,0,1,.713-1.057q.584-.607.713-.78a14.7,14.7,0,0,0,1.378-2.929,13.85,13.85,0,0,0,.892-3.345,3.059,3.059,0,0,0-.1-.884,2.4,2.4,0,0,1-.065-.919,2.016,2.016,0,0,1,.292-.624q.227-.347.584-.8t.551-.728A7.994,7.994,0,0,0,12.85,4.8q.276-.641.486-1.213t.519-1.248a6.051,6.051,0,0,1,.632-1.109,3.85,3.85,0,0,1,.859-.815,2.071,2.071,0,0,1,1.167-.4,6.31,6.31,0,0,1,1.54.191l-.032.1A8.5,8.5,0,0,1,19.676,0H44.352a4.185,4.185,0,0,1,3.7,1.941,5.231,5.231,0,0,1,.584,4.507L39.747,37.857q-1.167,4.126-2.318,5.322t-4.167,1.2H5.084a1.386,1.386,0,0,0-1.232.52,1.678,1.678,0,0,0-.032,1.491C4.338,48,5.895,48.813,8.489,48.62H38.418a2.174,2.174,0,0,0,1.816-.344,2.454,2.454,0,0,0,1.135-1.439L51.1,12.619A5.973,5.973,0,0,0,51.259,10.643ZM19.351,9.984,18.67,12.2a.958.958,0,0,0,.065.78.693.693,0,0,0,.648.329H39.1a1.3,1.3,0,0,0,.827-.329,1.548,1.548,0,0,0,.535-.78l.681-2.219a.957.957,0,0,0-.065-.78.471.471,0,0,0-.648-.2H20.713a.77.77,0,0,0-.827.2A1.548,1.548,0,0,0,19.351,9.984ZM16.66,18.859l-.681,2.219a.958.958,0,0,0,.065.78.693.693,0,0,0,.649.329H36.408a1.3,1.3,0,0,0,.827-.329,1.548,1.548,0,0,0,.535-.78l.681-2.219a.957.957,0,0,0-.065-.78c-.13-.219-.346-.329-.648-.072H18.022c-.281-.257-.557-.147-.827.072A1.548,1.548,0,0,0,16.66,18.859Z" transform="translate(542 552)"/><path class="b" d="M51.259,10.643a4.318,4.318,0,0,1,1.913,1.491,5.189,5.189,0,0,1,.584,4.472L44.838,48.015a7.172,7.172,0,0,1-2.481,3.727,6.213,6.213,0,0,1-3.972,1.508H8.456A7.625,7.625,0,0,1,3.641,51.4,9.7,9.7,0,0,1,.415,46.837a6.7,6.7,0,0,1-.065-4.4q0-.139.1-.936t.13-1.283a2.053,2.053,0,0,0-.1-.745,1.827,1.827,0,0,1-.1-.676,2.248,2.248,0,0,1,.259-.728,8.507,8.507,0,0,1,.535-.815,8.508,8.508,0,0,0,.535-.815,23.914,23.914,0,0,0,1.459-3.172,19.749,19.749,0,0,0,.973-3.172,2.887,2.887,0,0,0,.016-1.04,3.253,3.253,0,0,1-.016-.971,2.954,2.954,0,0,1,.551-.971,5.7,5.7,0,0,0,.551-.8,21.925,21.925,0,0,0,1.362-3.189A14.967,14.967,0,0,0,7.419,20a5.353,5.353,0,0,0-.081-1.109,1.708,1.708,0,0,1,.016-.971,2.788,2.788,0,0,1,.713-1.057q.584-.607.713-.78a14.7,14.7,0,0,0,1.378-2.929,13.85,13.85,0,0,0,.892-3.345,3.059,3.059,0,0,0-.1-.884,2.4,2.4,0,0,1-.065-.919,2.016,2.016,0,0,1,.292-.624q.227-.347.584-.8t.551-.728A7.994,7.994,0,0,0,12.85,4.8q.276-.641.486-1.213t.519-1.248a6.051,6.051,0,0,1,.632-1.109,3.85,3.85,0,0,1,.859-.815,2.071,2.071,0,0,1,1.167-.4,6.31,6.31,0,0,1,1.54.191l-.032.1A8.5,8.5,0,0,1,19.676,0H44.352a4.185,4.185,0,0,1,3.7,1.941,5.231,5.231,0,0,1,.584,4.507L39.747,37.857q-1.167,4.126-2.318,5.322t-4.167,1.2H5.084a1.386,1.386,0,0,0-1.232.52,1.678,1.678,0,0,0-.032,1.491C4.338,48,5.895,48.813,8.489,48.62H38.418a2.174,2.174,0,0,0,1.816-.344,2.454,2.454,0,0,0,1.135-1.439L51.1,12.619A5.973,5.973,0,0,0,51.259,10.643Z" transform="translate(542 552)"/><path d="M11.076,6.005,10.4,8.224A.958.958,0,0,0,10.46,9a.693.693,0,0,0,.648.329H30.824A1.3,1.3,0,0,0,31.651,9a1.548,1.548,0,0,0,.535-.78l.681-2.219a.957.957,0,0,0-.065-.78.471.471,0,0,0-.648-.2H12.438a.77.77,0,0,0-.827.2A1.548,1.548,0,0,0,11.076,6.005Z" transform="translate(550.275 555.979)"/><path d="M9.582,10.918,8.9,13.137a.958.958,0,0,0,.065.78.693.693,0,0,0,.649.329H29.329a1.3,1.3,0,0,0,.827-.329,1.548,1.548,0,0,0,.535-.78l.681-2.219a.957.957,0,0,0-.065-.78c-.13-.219-.346-.329-.648-.072H10.943c-.281-.257-.557-.147-.827.072A1.548,1.548,0,0,0,9.582,10.918Z" transform="translate(549.079 559.941)"/></g></svg>