<svg xmlns="http://www.w3.org/2000/svg" width="80.27" height="54.73" viewBox="0 0 80.27 54.73"><path d="M4278.965,1314.73a8.787,8.787,0,0,1-6.208-2.55,8.692,8.692,0,0,1,2.791-14.179,8.819,8.819,0,0,1,9.623,1.869,8.689,8.689,0,0,1,1.882,2.766,8.645,8.645,0,0,1-1.879,9.544,8.79,8.79,0,0,1-6.208,2.55Zm0-14.926a6.22,6.22,0,1,0,6.271,6.219A6.253,6.253,0,0,0,4278.965,1299.8Zm-38.881,14.926a8.787,8.787,0,0,1-6.208-2.55,8.692,8.692,0,0,1,2.791-14.179,8.819,8.819,0,0,1,9.623,1.869,8.687,8.687,0,0,1,1.882,2.766,8.647,8.647,0,0,1-1.879,9.544,8.79,8.79,0,0,1-6.208,2.55Zm0-14.926a6.22,6.22,0,1,0,6.271,6.219A6.253,6.253,0,0,0,4240.084,1299.8Zm-11.288,7.463h-12.542a1.25,1.25,0,0,1-1.254-1.244v-44.779a1.25,1.25,0,0,1,1.254-1.244h47.66a1.25,1.25,0,0,1,1.254,1.244v34.828a1.254,1.254,0,0,0,2.508,0v-22.39a1.251,1.251,0,0,1,1.254-1.244h10.034a8.791,8.791,0,0,1,6.208,2.55,8.639,8.639,0,0,1,2.571,6.157v6.344a6.268,6.268,0,0,1,3.6,2.161,6.182,6.182,0,0,1,1.414,3.934v3.732h-6.713a11.324,11.324,0,0,0-7.075-2.488h-.047a11.268,11.268,0,0,0-11.178,11.28v1.159h-16.376v-1.244a11.253,11.253,0,0,0-11.3-11.195h-.1a11.347,11.347,0,0,0-11.177,11.337v1.1Zm45.152-17.414a1.244,1.244,0,1,0,1.254,1.244A1.251,1.251,0,0,0,4273.948,1289.852Zm-21.347,1.857a.513.513,0,0,1,.283.085l.738.488v-9.18l-.737.487a.515.515,0,0,1-.567,0l-.738-.488v9.181l.738-.488A.513.513,0,0,1,4252.6,1291.709Zm-11.743-9.047v9.62h9.7v-9.62Zm-6.637,3.038a1.527,1.527,0,0,1,1.532,1.519v.506a2.545,2.545,0,0,1,2.553,2.532,2.456,2.456,0,0,1-.284,1.151,2.6,2.6,0,0,1-.753.874h2.058v-7.014l-.021.071a.512.512,0,0,1-.364.346.533.533,0,0,1-.125.015.515.515,0,0,1-.361-.148l-2.556-2.535-1.247,1.943a.513.513,0,0,1-.862,0l-1.247-1.943-2.556,2.535a.517.517,0,0,1-.361.148.529.529,0,0,1-.124-.015.512.512,0,0,1-.365-.346l-1.372-4.533-1.729.686-.358,7.815,2.416-1.369v-1.225h1.021v1.013h3.574v-.506A1.527,1.527,0,0,1,4234.221,1285.7Zm-5.48,3.038-3.116,1.766-.059,1.272h10.188a1.519,1.519,0,1,0,0-3.038h-.51a.509.509,0,0,1-.511-.506v-1.013a.511.511,0,0,0-1.021,0v1.013a.509.509,0,0,1-.51.506Zm43.953-13.812v12.438h12.542v-6.219a6.262,6.262,0,0,0-6.271-6.219Zm-34.7,4.817h0l-1.538,2.4,2.112,2.095,1.152-3.808-1.726-.685Zm-7.554,0h0l-1.727.685,1.152,3.808,2.112-2.095-1.538-2.4Zm1.381-1.357h0l-.559.752,1.8,2.8,1.157,1.8,1.158-1.8,1.8-2.8-.559-.752a7.536,7.536,0,0,1-1.379.495,4.228,4.228,0,0,1-2.034,0,7.542,7.542,0,0,1-1.379-.495Zm19.528,3.348h0l1.249.825.369-.244,1.941-3.85a.625.625,0,0,0-.451-.895.632.632,0,0,0-.48.106,13.569,13.569,0,0,0-3.7,3.972h.792a.5.5,0,0,1,.278.093l0-.008Zm-1.955-3.324a.559.559,0,0,1,.481.311.479.479,0,0,1-.052.521l-1.821,2.407h1.09a14.387,14.387,0,0,1,2.9-3.67,3.244,3.244,0,0,0,1.048-1.989.169.169,0,0,0-.089-.18l-.234-.116a.17.17,0,0,0-.075-.018.161.161,0,0,0-.091.028l-.957.632a1.192,1.192,0,0,1-.945.162l-1.145-.283a.166.166,0,0,0-.2.107l-.153.456a.95.95,0,0,1-.953.667,1.554,1.554,0,0,1-.5-.086.164.164,0,0,0-.053-.009.167.167,0,0,0-.164.166v1.095h-.419a.511.511,0,0,0-.39.179.5.5,0,0,0-.114.41l.412,2.449h.511a3.022,3.022,0,0,1,.613-1.823l.918-1.215,0,0v0l.006-.008A.45.45,0,0,1,4249.4,1278.41Zm-5.987-2.837v2.532a2.2,2.2,0,0,1-.993,1.841,1.194,1.194,0,0,0-.539,1v.706h4.084v-.706a1.2,1.2,0,0,0-.538-1,2.2,2.2,0,0,1-.993-1.84v-2.532Zm-11.917-1.977-2.479.375a6.373,6.373,0,0,0,4.437,3.927,3.219,3.219,0,0,0,1.54,0,6.333,6.333,0,0,0,4.533-4.2l-2.733-2.482a8.8,8.8,0,0,1-4.71,2.3l-.339.051a.5.5,0,0,1,.311.251.988.988,0,0,1,.126.5c0,.419-.229.759-.511.759s-.511-.341-.511-.759a.808.808,0,0,1,.336-.711Zm-2.889-2.862v1.008a6.331,6.331,0,0,0,.128,1.247l3.194-.483a7.776,7.776,0,0,0,3.525-1.49h-5.827a2.023,2.023,0,0,1-1.021-.282Zm9.482.282,1.692,1.537a6.3,6.3,0,0,0,.058-.811v-1.008a2.024,2.024,0,0,1-1.021.282Zm-3.867-2.519a16.584,16.584,0,0,0-3.986.485l-1.554.385a1.016,1.016,0,0,0,.946.636h9.19a1.016,1.016,0,0,0,.946-.636l-1.554-.385A16.6,16.6,0,0,0,4234.221,1268.5Zm0-5.077c-2.509,0-5.3,1.291-5.59,4.915l1.356-.336a17.669,17.669,0,0,1,8.468,0l1.347.334a5.471,5.471,0,0,0-1.79-3.523A5.691,5.691,0,0,0,4234.221,1263.42Zm59.795,43.846h-3.763a11.774,11.774,0,0,0-1.908-7.463h5.671a1.25,1.25,0,0,1,1.254,1.244v4.975A1.25,1.25,0,0,1,4294.016,1307.266Zm-15.051,0a1.244,1.244,0,1,1,1.254-1.244A1.25,1.25,0,0,1,4278.965,1307.266Zm-38.881,0a1.244,1.244,0,1,1,1.254-1.244A1.25,1.25,0,0,1,4240.084,1307.266Zm7.922-17.01h-4.6a.51.51,0,0,1-.5-.407l-.429-2.125h-.6v-1.013h1.727l.88-1.745.914.453-.652,1.292h1.922l-.651-1.293.913-.453.879,1.746h1.727v1.013h-.6l-.428,2.125A.511.511,0,0,1,4248.006,1290.257Zm-4.482-2.532.306,1.519h3.759l.306-1.519Zm-6.75-12.659c-.281,0-.51-.341-.51-.759s.229-.76.51-.76.511.341.511.76S4237.056,1275.066,4236.774,1275.066Z" transform="translate(-4215 -1260)"/></svg>