<svg xmlns="http://www.w3.org/2000/svg" width="72.973" height="54.73" viewBox="0 0 72.973 54.73"><g transform="translate(0 0)"><path d="M70.892,45.432H5.216a1.216,1.216,0,1,1,0-2.432H70.892a1.216,1.216,0,0,1,0,2.432Z" transform="translate(0.865 9.298)"/><circle cx="1.216" cy="1.216" r="1.216" transform="translate(0 2.432)"/><path d="M45.723,0H12.353a1.216,1.216,0,0,0-1.181.922l-.377,1.511H5.588a1.216,1.216,0,0,0,0,2.432h4.6L4.713,26.757H14.1a1.216,1.216,0,1,1,0,2.432h-10l-1.824,7.3H46.939V1.216A1.216,1.216,0,0,0,45.723,0Zm-7.3,27.973a1.216,1.216,0,1,1-1.216-1.216A1.216,1.216,0,0,1,38.426,27.973ZM37.21,10.946A3.649,3.649,0,1,1,33.561,7.3,3.649,3.649,0,0,1,37.21,10.946ZM23.831,2.432h6.081a1.216,1.216,0,1,1,0,2.432H23.831a1.216,1.216,0,1,1,0-2.432ZM21.885,7.541a1.216,1.216,0,0,1,1.7.243L34.534,22.378a1.216,1.216,0,1,1-1.946,1.459L21.642,9.243a1.216,1.216,0,0,1,.243-1.7Zm.73,9.487a3.649,3.649,0,1,1-3.649,3.649A3.649,3.649,0,0,1,22.615,17.027ZM17.75,27.973a1.216,1.216,0,0,1,1.216-1.216H32.345a1.216,1.216,0,1,1,0,2.432H18.966A1.216,1.216,0,0,1,17.75,27.973Zm6.081,6.081H21.4a1.216,1.216,0,0,1,0-2.432h2.432a1.216,1.216,0,0,1,0,2.432Zm20.676,0H28.7a1.216,1.216,0,0,1,0-2.432H44.507a1.216,1.216,0,0,1,0,2.432Z" transform="translate(0.493 0)"/><path d="M50.865,35a4.865,4.865,0,1,0,4.865,4.865A4.865,4.865,0,0,0,50.865,35Zm0,6.081a1.216,1.216,0,1,1,1.216-1.216A1.216,1.216,0,0,1,50.865,41.081Z" transform="translate(9.946 7.568)"/><path d="M2,32v2.432a1.216,1.216,0,0,0,1.216,1.216H6.305a7.264,7.264,0,0,1,10.849,0h37.8a7.264,7.264,0,0,1,10.849,0h3.089a1.216,1.216,0,0,0,1.216-1.216V32Z" transform="translate(0.432 6.919)"/><path d="M10.865,35a4.865,4.865,0,1,0,4.865,4.865A4.865,4.865,0,0,0,10.865,35Zm0,6.081a1.216,1.216,0,1,1,1.216-1.216A1.216,1.216,0,0,1,10.865,41.081Z" transform="translate(1.297 7.568)"/><path d="M45,9V19.946H55.946v-.405L48.041,9Z" transform="translate(9.73 1.946)"/><path d="M51.7,5.486A1.216,1.216,0,0,0,50.73,5H41V35.406H61.676V32.973H59.243a2.432,2.432,0,0,1-2.432-2.432V28.108a2.432,2.432,0,0,1,2.432-2.432h2.432V19.19a1.224,1.224,0,0,0-.243-.73ZM47.081,28.108H44.649a1.216,1.216,0,0,1,0-2.432h2.432a1.216,1.216,0,0,1,0,2.432Zm12.162-7.3a2.432,2.432,0,0,1-2.432,2.432H45.865a2.432,2.432,0,0,1-2.432-2.432V9.865a2.432,2.432,0,0,1,2.432-2.432h3.041a2.443,2.443,0,0,1,1.946.973l7.905,10.541a2.442,2.442,0,0,1,.486,1.459Z" transform="translate(8.865 1.081)"/><path d="M56,24h2.432v2.432H56Z" transform="translate(12.108 5.189)"/><path d="M1.216,45.432H2.432a1.216,1.216,0,1,0,0-2.432H1.216a1.216,1.216,0,1,0,0,2.432Z" transform="translate(0 9.298)"/></g></svg>