<svg xmlns="http://www.w3.org/2000/svg" width="77.994" height="54.73" viewBox="0 0 77.994 54.73"><g transform="translate(0 -52.987)"><g transform="translate(0 52.987)"><path d="M50.2,235.354a7.347,7.347,0,1,0,7.348,7.348A7.347,7.347,0,0,0,50.2,235.354Zm0,10.542a3.194,3.194,0,1,1,3.2-3.194A3.194,3.194,0,0,1,50.2,245.9Z" transform="translate(-33.447 -195.319)"/><path d="M226.7,235.354a7.347,7.347,0,1,0,7.348,7.348A7.347,7.347,0,0,0,226.7,235.354Zm0,10.542a3.194,3.194,0,1,1,3.2-3.194A3.194,3.194,0,0,1,226.7,245.9Z" transform="translate(-171.196 -195.319)"/><path d="M2.2,133.551H36.072a2.2,2.2,0,0,0,2.2-2.2V118.292a2.2,2.2,0,0,0-2.2-2.2H2.2a2.2,2.2,0,0,0-2.2,2.2v13.063A2.2,2.2,0,0,0,2.2,133.551Z" transform="translate(0 -102.242)"/><path d="M110.9,65.471h9.968a2.2,2.2,0,0,0,2.2-2.2V55.182a2.2,2.2,0,0,0-2.2-2.2H110.9a2.2,2.2,0,0,0-2.2,2.2v8.093A2.2,2.2,0,0,0,110.9,65.471Z" transform="translate(-84.844 -52.987)"/><path d="M2.2,78.1H20.237a2.2,2.2,0,0,0,2.2-2.2V71.359a2.2,2.2,0,0,0-2.2-2.2H2.2a2.2,2.2,0,0,0-2.2,2.2V75.9A2.2,2.2,0,0,0,2.2,78.1Z" transform="translate(0 -65.613)"/><path d="M69.9,117.42c-2.694-.7-4.236-1.141-5.294-3.184l-3.538-7.162a7.571,7.571,0,0,0-6.107-3.715H48.154v-2.032a2.2,2.2,0,0,0-2.2-2.2H41.833a2.2,2.2,0,0,0-2.2,2.2V120.41a2.678,2.678,0,0,1-2.4,1.5H11.189c-.062,0-.141,0-.231.008H6.673v-.007H4.892c-.108-.016-2.854-.005-2.854-.005A2.054,2.054,0,0,0,0,124.077v10.555a2.2,2.2,0,0,0,2.2,2.2h5c-.007-.147-.011-.3-.011-.444a9.575,9.575,0,0,1,19.15,0c0,.149,0,.3-.011.444H45.239a4.241,4.241,0,0,0,.7-.06c0-.127-.01-.255-.01-.383a9.575,9.575,0,0,1,19.15,0c0,.149,0,.3-.011.444H73.81a4.2,4.2,0,0,0,4.184-4.184v-7.949C77.994,118,72.137,118,69.9,117.42Zm-21.746-.373v-10.78h5.32a6.737,6.737,0,0,1,5.434,3.305l3.148,6.373a4.555,4.555,0,0,0,.778,1.1Z" transform="translate(0 -89.001)"/></g></g></svg>