<svg xmlns="http://www.w3.org/2000/svg" width="59.621" height="54.73" viewBox="0 0 59.621 54.73"><g transform="translate(0 -21)"><g transform="translate(0 21)"><path d="M54.381,41.96H53.015L46.028,27.987H38.544V21H21.077v6.987H13.593L6.606,41.96H5.24A5.246,5.246,0,0,0,0,47.2V66.414H3.493V75.73h9.316V66.414h34V75.73h9.316V66.414h3.493V47.2A5.246,5.246,0,0,0,54.381,41.96ZM24.57,24.493H35.05v3.493H24.57ZM15.752,31.48H43.869l5.24,10.48h-38.6ZM11.062,58.845a4.658,4.658,0,1,1,4.658-4.658A4.663,4.663,0,0,1,11.062,58.845Zm26.9-2.911h-16.3V52.441h16.3Zm10.6,2.911a4.658,4.658,0,1,1,4.658-4.658A4.663,4.663,0,0,1,48.558,58.845Z" transform="translate(0 -21)"/></g></g></svg>