<svg xmlns="http://www.w3.org/2000/svg" width="75.58" height="54.73" viewBox="0 0 75.58 54.73"><g transform="translate(-2 -11)"><rect width="6.515" height="2.606" transform="translate(2 52.699)"/><rect width="3.909" height="2.606" transform="translate(4.606 47.487)"/><rect width="2.606" height="2.606" transform="translate(5.909 42.274)"/><path d="M16.515,15A6.515,6.515,0,0,0,10,21.515c0,3.349,4.1,8.509,6.515,11.141,2.411-2.632,6.515-7.793,6.515-11.141A6.515,6.515,0,0,0,16.515,15Zm0,10.425a3.909,3.909,0,1,1,3.909-3.909,3.909,3.909,0,0,1-3.909,3.909Z" transform="translate(2.425 1.212)"/><circle cx="1.303" cy="1.303" r="1.303" transform="translate(17.637 21.425)"/><path d="M64.549,43a6.515,6.515,0,0,0-6.515,6.515,6.416,6.416,0,0,0,1.342,3.909H33.235a6.416,6.416,0,0,0,1.342-3.909,6.515,6.515,0,0,0-13.031,0,6.416,6.416,0,0,0,1.342,3.909H2v2.606H64.549a6.515,6.515,0,0,0,0-13.031ZM29.365,50.819H26.759V48.212h2.606Zm36.487,0H63.245V48.212h2.606Z" transform="translate(0 9.699)"/><path d="M53.582,27H45V38.728H64.546v-.764Z" transform="translate(13.033 4.85)"/><path d="M55,42.546A2.614,2.614,0,0,1,52.4,39.94V28.212A2.614,2.614,0,0,1,55,25.606h5.981l-2.228-2.228A1.29,1.29,0,0,0,57.83,23H44.577V42.546H41.971V23H32.8A16.962,16.962,0,0,1,15.909,38.637,16.725,16.725,0,0,1,12,38.168v14.8a1.3,1.3,0,0,0,1.3,1.3h2.71a9.11,9.11,0,0,1,18.035,0H52.5a9.11,9.11,0,0,1,18.035,0h2.71a1.3,1.3,0,0,0,1.3-1.3V42.546Zm-1.3,5.212H48.487V45.153H53.7Z" transform="translate(3.031 3.637)"/><path d="M18.334,11A14.334,14.334,0,1,0,32.668,25.334,14.334,14.334,0,0,0,18.334,11Zm.925,25.684a1.321,1.321,0,0,1-1.85,0c-.834-.847-8.2-8.366-8.2-13.956a9.122,9.122,0,1,1,18.243,0C27.456,28.318,20.093,35.837,19.259,36.684Z" transform="translate(0.606)"/></g></svg>