<svg xmlns="http://www.w3.org/2000/svg" width="54.787" height="54.733" viewBox="0 0 54.787 54.733"><g transform="translate(0 -0.239)"><path d="M133.058,68.33a3.653,3.653,0,0,1,2.975-4.223l5.73-.994V51.473a1.864,1.864,0,0,0-1.864-1.865H114.481a1.864,1.864,0,0,0-1.864,1.865V63.087l5.876,1.02a3.653,3.653,0,0,1-1.248,7.2l-4.628-.8v1.363a1.864,1.864,0,0,0,1.864,1.864H139.9a1.864,1.864,0,0,0,1.864-1.864V70.527l-4.482.778A3.653,3.653,0,0,1,133.058,68.33Z" transform="translate(-99.869 -43.781)"/><path d="M8.409,117.646a2.714,2.714,0,0,1-2.136-1.9l-2.317-7.858L7.5,115.14a2.281,2.281,0,0,0,1.66,1.247l8.446,1.466a2.283,2.283,0,1,0,.781-4.5l-7.3-1.267-3.035-6.209,3.1,4.312v-.013A6.557,6.557,0,0,0,4.6,103.62a4.6,4.6,0,0,0-4.6,4.6l.021,35.7a2.739,2.739,0,0,0,5.479,0V127.587H7.326v16.325a4.527,4.527,0,0,1-.571,2.169,2.711,2.711,0,0,0,1.655.571,2.739,2.739,0,0,0,2.739-2.739l0-25.789-2.224-.386Z" transform="translate(0 -91.679)"/><path d="M7.43,10.914A5.337,5.337,0,1,0,2.092,5.577,5.337,5.337,0,0,0,7.43,10.914Z" transform="translate(-1.855)"/><path d="M320.506,103.62a6.557,6.557,0,0,0-6.557,6.558v.133l2.628-3.475-2.568,5.252-7.3,1.267a2.283,2.283,0,1,0,.781,4.5l8.446-1.466a2.281,2.281,0,0,0,1.66-1.247l3.079-6.3-1.848,6.9a2.6,2.6,0,0,1-2.068,1.894l-.588.1-2.224.386,0,25.789a2.74,2.74,0,0,0,2.739,2.739,2.711,2.711,0,0,0,1.655-.571,4.527,4.527,0,0,1-.571-2.169V127.587H319.6v16.325a2.739,2.739,0,1,0,5.479,0l.021-23.3V108.216A4.6,4.6,0,0,0,320.506,103.62Z" transform="translate(-270.315 -91.679)"/><path d="M392.943,10.914a5.337,5.337,0,1,0-5.338-5.337A5.336,5.336,0,0,0,392.943,10.914Z" transform="translate(-343.73)"/></g></svg>