<svg xmlns="http://www.w3.org/2000/svg" width="95.5" height="55.128" viewBox="0 0 95.5 55.128"><defs><style>.a{fill:#ffcb1e;}.b{fill:#fff;}</style></defs><g transform="translate(0 0)"><path class="a" d="M64.5,6.15l1-1h20l9-4v40H86.72a11,11,0,0,0-20,8H57.5v-23Zm-2,20H76.81a.69.69,0,0,0,.69-.69V13.84a.69.69,0,0,0-.69-.69H66a.7.7,0,0,0-.66.49L61.8,25.19a.74.74,0,0,0,.71.96Z" transform="translate(-56.5 -0.006)"/><path class="b" d="M74.5,42.65a4.5,4.5,0,1,1-4.5,4.5A4.5,4.5,0,0,1,74.5,42.65Zm0,8a3.5,3.5,0,1,0-3.5-3.5,3.5,3.5,0,0,0,3.5,3.5Z" transform="translate(-53.5 -0.006)"/><path class="b" d="M16.5,42.65a4.5,4.5,0,1,1-4.5,4.5,4.5,4.5,0,0,1,4.5-4.5Zm0,8a3.5,3.5,0,1,0-3.5-3.5,3.5,3.5,0,0,0,3.5,3.5Z" transform="translate(62.5 -0.006)"/><path class="b" d="M77.607,13.48a1.18,1.18,0,0,1,1.13-.83h10.81a1.18,1.18,0,0,1,1.19,1.18V25.46a1.19,1.19,0,0,1-1.19,1.19h-14.3a1.23,1.23,0,0,1-1-.51,1.21,1.21,0,0,1-.19-1.1Zm-2.56,12.07a.24.24,0,0,0,.2.1h14.3a.19.19,0,0,0,.19-.19V13.83a.18.18,0,0,0-.19-.18H78.737a.17.17,0,0,0-.18.13L75,25.33a.25.25,0,0,0,.05.22Z" transform="translate(-69.237 -0.006)"/><path class="b" d="M.6,24.17,6.33,7a4.16,4.16,0,0,1,4-2.84H27.66a4.13,4.13,0,0,0,2-.53L35.63.32a2.33,2.33,0,0,1,2-.16,2.2,2.2,0,0,1,1.36,2V40.65H68.92a12,12,0,0,1,20.16,0h4.08A2.34,2.34,0,0,1,95.5,43v6.32a2.34,2.34,0,0,1-2.34,2.34H90.08A1.08,1.08,0,0,1,89,50.57v-.42H86.41a8,8,0,0,1-14.82,0H69v.42a1.08,1.08,0,0,1-1.08,1.08H32.08A1.08,1.08,0,0,1,31,50.57v-.42H28.41a8,8,0,0,1-14.82,0H2.38A2.38,2.38,0,0,1,0,47.77V27.89a11.78,11.78,0,0,1,.6-3.72Zm90.4,23v2.5h2.16a.34.34,0,0,0,.34-.36V43a.34.34,0,0,0-.34-.34h-3A12,12,0,0,1,91,47.15ZM73.15,48.54a10.625,10.625,0,1,0,0-.02ZM69,48.17h2.07a8.259,8.259,0,0,1-.07-1,8,8,0,0,1,16,0,8.26,8.26,0,0,1-.07,1H89V47.5a10.24,10.24,0,0,0-9.31-10.33A10,10,0,0,0,69,47.17Zm-36-1v2.5H67v-2.5a12,12,0,0,1,.88-4.5H32.12A12,12,0,0,1,33,47.15ZM15.15,48.54a10.625,10.625,0,1,0,0-.02ZM11,48.17h2.07a8.26,8.26,0,0,1-.07-1,8,8,0,1,1,16,0,8.26,8.26,0,0,1-.07,1H31V47.5a10.24,10.24,0,0,0-9.31-10.33A10,10,0,0,0,11,47.17Zm-9-.38a.38.38,0,0,0,.38.38H9v-.61A12.25,12.25,0,0,1,20.7,35.15a12,12,0,0,1,10.38,5.5H37V2.2a.21.21,0,0,0-.1-.2.2.2,0,0,0-.21,0l-6,3.35a6.18,6.18,0,0,1-3,.78H10.28a2.15,2.15,0,0,0-2,1.47L2.5,24.81A9.74,9.74,0,0,0,2,27.89Z" transform="translate(0 -0.006)"/></g></svg>